# xmcd
#
# Track frame offsets:
#	150
#	14544
#	27579
#	44004
#	66376
#	83298
#	105257
#	121423
#	131064
#	144263
#	160759
#	175543
#	189825
#	204638
#	217988
#
# Disc length: 3112
#
# Revision: 1
# Processed by: cddbd v1.5.1PL0 Copyright (c) Steve Scherf et al.
# Submitted via: audiograbber 1.82.02
# Normalized: r0:TSWAP
#
DISCID=c60c260f
DTITLE=Various Artist - Box of the Blues Disc 1
DYEAR=2003
DGENRE=Blues
TTITLE0=Mississippi Fred McDowell - 61 Highway
TTITLE1=Herb Quinn - See See Rider
TTITLE2=Big Bill Broonzy - I Could Hear My Name Ringin'
TTITLE3=Robert Nighthawk - Cheating and Lying Blues
TTITLE4=Johnny Shines - Lonesome Whistle
TTITLE5=Etta Baker - Broken Hearted Blues
TTITLE6=Buster Brown - I'm Gonna Make You Happy
TTITLE7=Boogie Bill Webb - Dooleyville Blues
TTITLE8=Cephas and Wiggins - One Kind Favor
TTITLE9=Otis Spann - Blues for Martin Luther King
TTITLE10=David "Honeyboy" Edwards - Wind Howlin' Blues
TTITLE11=Blind Willie McTell - Dying Crapshooter's Blues
TTITLE12=Big Joe Williams - Screamin' and Cryin'
TTITLE13=Mississippi John Hurt - Candy Man
TTITLE14=Sonny Terry - The Red Cross Store
EXTD=
EXTT0=
EXTT1=
EXTT2=
EXTT3=
EXTT4=
EXTT5=
EXTT6=
EXTT7=
EXTT8=
EXTT9=
EXTT10=
EXTT11=
EXTT12=
EXTT13=
EXTT14=
PLAYORDER=
